<svg width="48" height="50" viewBox="0 0 48 50" fill="none" xmlns="http://www.w3.org/2000/svg">
<g clip-path="url(#clip0_1_246)">
<path fill-rule="evenodd" clip-rule="evenodd" d="M7.902 11.6216C8.46866 10.2435 9.41098 9.06917 10.612 8.24437C11.8131 7.41957 13.22 6.9806 14.6583 6.98194H33.3466C36.2841 6.98194 38.9396 8.80719 40.097 11.6216L42.4235 17.2811C42.6438 17.8171 43.0404 18.2581 43.5398 18.5184C45.0085 19.284 46.0513 20.7081 46.3744 22.3832L47.3585 27.5252C47.4554 28.0182 47.5024 28.5205 47.5024 29.0258V30.2906C47.5024 32.7835 46.3568 35.0161 44.5649 36.4064V42.2007C44.5649 42.6068 44.4102 42.9963 44.1348 43.2834C43.8593 43.5706 43.4857 43.7319 43.0962 43.7319H37.2212C36.8317 43.7319 36.4581 43.5706 36.1826 43.2834C35.9072 42.9963 35.7524 42.6068 35.7524 42.2007V38.1031C31.9572 38.2501 27.689 38.3726 24.0024 38.3726C20.3159 38.3726 16.0477 38.2501 12.2524 38.1031V42.2007C12.2524 42.6068 12.0977 42.9963 11.8223 43.2834C11.5468 43.5706 11.1732 43.7319 10.7837 43.7319H4.90869C4.51915 43.7319 4.14557 43.5706 3.87013 43.2834C3.59468 42.9963 3.43994 42.6068 3.43994 42.2007V36.4064C1.64807 35.0161 0.502441 32.7835 0.502441 30.2906V29.0258C0.502934 28.5219 0.551147 28.0192 0.646379 27.5252L1.63044 22.3802C1.95357 20.7081 2.99638 19.2809 4.46219 18.5184C4.9639 18.257 5.36045 17.8186 5.58138 17.2811L7.90788 11.6216H7.902ZM9.312 31.4819C10.0911 31.4819 10.8382 31.1593 11.3891 30.5849C11.94 30.0106 12.2495 29.2317 12.2495 28.4194C12.2495 27.6072 11.94 26.8283 11.3891 26.2539C10.8382 25.6796 10.0911 25.3569 9.312 25.3569C8.53293 25.3569 7.78577 25.6796 7.23488 26.2539C6.68399 26.8283 6.3745 27.6072 6.3745 28.4194C6.3745 29.2317 6.68399 30.0106 7.23488 30.5849C7.78577 31.1593 8.53293 31.4819 9.312 31.4819ZM38.687 31.4819C39.4661 31.4819 40.2132 31.1593 40.7641 30.5849C41.315 30.0106 41.6245 29.2317 41.6245 28.4194C41.6245 27.6072 41.315 26.8283 40.7641 26.2539C40.2132 25.6796 39.4661 25.3569 38.687 25.3569C37.9079 25.3569 37.1608 25.6796 36.6099 26.2539C36.059 26.8283 35.7495 27.6072 35.7495 28.4194C35.7495 29.2317 36.059 30.0106 36.6099 30.5849C37.1608 31.1593 37.9079 31.4819 38.687 31.4819ZM18.1245 25.3569C17.3454 25.3569 16.5983 25.6796 16.0474 26.2539C15.4965 26.8283 15.187 27.6072 15.187 28.4194C15.187 29.2317 15.4965 30.0106 16.0474 30.5849C16.5983 31.1593 17.3454 31.4819 18.1245 31.4819H29.8745C30.6536 31.4819 31.4007 31.1593 31.9516 30.5849C32.5025 30.0106 32.812 29.2317 32.812 28.4194C32.812 27.6072 32.5025 26.8283 31.9516 26.2539C31.4007 25.6796 30.6536 25.3569 29.8745 25.3569H18.1245ZM9.03588 16.7482L11.8441 10.8897C11.9662 10.6357 12.1537 10.4221 12.3856 10.2728C12.6175 10.1235 12.8847 10.0444 13.1572 10.0444H34.8418C35.1144 10.0444 35.3815 10.1235 35.6134 10.2728C35.8453 10.4221 36.0328 10.6357 36.1549 10.8897L38.9631 16.7482C39.0779 16.9953 39.1283 17.2694 39.1091 17.5432C39.09 17.8169 39.0019 18.0806 38.8539 18.3076C38.7059 18.5346 38.5031 18.7169 38.2659 18.8361C38.0288 18.9554 37.7657 19.0074 37.5032 18.9869C34.8301 18.7634 27.6626 18.4663 23.9995 18.4663C20.3364 18.4663 13.166 18.7634 10.4958 18.9869C10.2333 19.0074 9.97019 18.9554 9.73306 18.8361C9.49594 18.7169 9.29315 18.5346 9.14512 18.3076C8.99709 18.0806 8.90906 17.8169 8.88988 17.5432C8.8707 17.2694 8.92106 16.9953 9.03588 16.7482Z" fill="#B8B8B8"/>
</g>
<defs>
<clipPath id="clip0_1_246">
<rect width="47" height="49" fill="white" transform="translate(0.499512 0.856934)"/>
</clipPath>
</defs>
</svg>
