<svg width="40" height="51" viewBox="0 0 40 51" fill="none" xmlns="http://www.w3.org/2000/svg">
<path d="M19.9997 50.4631C16.477 47.4583 13.2118 44.1642 10.2381 40.6151C5.7757 35.2853 0.476565 27.3477 0.476565 19.7839C0.47463 15.921 1.61869 12.1444 3.76396 8.9319C5.90924 5.71945 8.95929 3.21562 12.5281 1.73727C16.0969 0.258916 20.0241 -0.127493 23.8126 0.626941C27.6011 1.38138 31.0807 3.24274 33.8109 5.97547C35.6287 7.78515 37.0695 9.93737 38.0499 12.3076C39.0304 14.6778 39.531 17.2189 39.5229 19.7839C39.5229 27.3477 34.2237 35.2853 29.7613 40.6151C26.7876 44.1642 23.5224 47.4583 19.9997 50.4631ZM19.9997 11.4168C17.7806 11.4168 15.6524 12.2984 14.0833 13.8675C12.5142 15.4366 11.6326 17.5648 11.6326 19.7839C11.6326 22.003 12.5142 24.1312 14.0833 25.7003C15.6524 27.2694 17.7806 28.151 19.9997 28.151C22.2188 28.151 24.347 27.2694 25.9161 25.7003C27.4852 24.1312 28.3668 22.003 28.3668 19.7839C28.3668 17.5648 27.4852 15.4366 25.9161 13.8675C24.347 12.2984 22.2188 11.4168 19.9997 11.4168Z" fill="#B8B8B8"/>
</svg>
