<svg width="30" height="31" viewBox="0 0 30 31" fill="none" xmlns="http://www.w3.org/2000/svg">
<path d="M6.25 14.1988H21.075L16.5375 8.74883C16.3253 8.49356 16.2232 8.16446 16.2537 7.83393C16.2842 7.50339 16.4447 7.1985 16.7 6.98633C16.9553 6.77416 17.2844 6.67208 17.6149 6.70256C17.9454 6.73303 18.2503 6.89356 18.4625 7.14883L24.7125 14.6488C24.7545 14.7085 24.7922 14.7712 24.825 14.8363C24.825 14.8988 24.825 14.9363 24.9125 14.9988C24.9692 15.1422 24.9988 15.2947 25 15.4488C24.9988 15.6029 24.9692 15.7555 24.9125 15.8988C24.9125 15.9613 24.9125 15.9988 24.825 16.0613C24.7922 16.1265 24.7545 16.1892 24.7125 16.2488L18.4625 23.7488C18.345 23.8899 18.1978 24.0034 18.0314 24.0812C17.8651 24.159 17.6836 24.1991 17.5 24.1988C17.2079 24.1994 16.9249 24.0977 16.7 23.9113C16.5734 23.8064 16.4688 23.6775 16.3921 23.5321C16.3154 23.3867 16.2682 23.2275 16.2531 23.0638C16.238 22.9001 16.2553 22.735 16.3041 22.578C16.3529 22.421 16.4322 22.2751 16.5375 22.1488L21.075 16.6988H6.25C5.91848 16.6988 5.60054 16.5671 5.36612 16.3327C5.13169 16.0983 5 15.7804 5 15.4488C5 15.1173 5.13169 14.7994 5.36612 14.5649C5.60054 14.3305 5.91848 14.1988 6.25 14.1988Z" fill="#0B132A"/>
</svg>
