<?xml version="1.0" encoding="UTF-8" standalone="no"?>
<svg
   width="34"
   height="34"
   viewBox="0 0 34 34"
   fill="none"
   version="1.1"
   id="svg25"
   sodipodi:docname="Instagram.svg"
   inkscape:version="1.2.1 (9c6d41e410, 2022-07-14)"
   xmlns:inkscape="http://www.inkscape.org/namespaces/inkscape"
   xmlns:sodipodi="http://sodipodi.sourceforge.net/DTD/sodipodi-0.dtd"
   xmlns="http://www.w3.org/2000/svg"
   xmlns:svg="http://www.w3.org/2000/svg">
  <sodipodi:namedview
     id="namedview27"
     pagecolor="#ffffff"
     bordercolor="#000000"
     borderopacity="0.25"
     inkscape:showpageshadow="2"
     inkscape:pageopacity="0.0"
     inkscape:pagecheckerboard="0"
     inkscape:deskcolor="#d1d1d1"
     showgrid="false"
     inkscape:zoom="9.53584"
     inkscape:cx="15.572828"
     inkscape:cy="22.336784"
     inkscape:window-width="1280"
     inkscape:window-height="961"
     inkscape:window-x="1912"
     inkscape:window-y="-8"
     inkscape:window-maximized="1"
     inkscape:current-layer="svg25" />
  <g
     filter="url(#filter0_d_1_312)"
     id="g4" />
  <defs
     id="defs23">
    <filter
       id="filter0_d_1_312"
       x="0.200317"
       y="0"
       width="69.599899"
       height="69.599899"
       filterUnits="userSpaceOnUse"
       color-interpolation-filters="sRGB">
      <feFlood
         flood-opacity="0"
         result="BackgroundImageFix"
         id="feFlood8" />
      <feColorMatrix
         in="SourceAlpha"
         type="matrix"
         values="0 0 0 0 0 0 0 0 0 0 0 0 0 0 0 0 0 0 127 0"
         result="hardAlpha"
         id="feColorMatrix10" />
      <feOffset
         dy="13"
         id="feOffset12" />
      <feGaussianBlur
         stdDeviation="9"
         id="feGaussianBlur14" />
      <feColorMatrix
         type="matrix"
         values="0 0 0 0 0.0658854 0 0 0 0 0.0730469 0 0 0 0 0.1375 0 0 0 0.08 0"
         id="feColorMatrix16" />
      <feBlend
         mode="normal"
         in2="BackgroundImageFix"
         result="effect1_dropShadow_1_312"
         id="feBlend18" />
      <feBlend
         mode="normal"
         in="SourceGraphic"
         in2="effect1_dropShadow_1_312"
         result="shape"
         id="feBlend20" />
    </filter>
  </defs>
  <g
     id="g1906"
     transform="translate(-17.970559,-4.7194699)">
    <circle
       cx="35.000301"
       cy="21.7999"
       r="16.7999"
       fill="#1a202c"
       id="circle2" />
    <path
       d="m 40.2502,21.8 c 0,1.3924 -0.5531,2.7277 -1.5377,3.7123 -0.9846,0.9846 -2.3199,1.5377 -3.7123,1.5377 -1.3924,0 -2.7277,-0.5531 -3.7123,-1.5377 -0.9846,-0.9846 -1.5377,-2.3199 -1.5377,-3.7123 0,-0.2992 0.0315,-0.5915 0.0857,-0.875 h -1.8357 v 6.9948 c 0,0.4865 0.3937,0.8802 0.8802,0.8802 h 12.2413 c 0.2332,-5e-4 0.4566,-0.0934 0.6213,-0.2584 0.1647,-0.1651 0.2572,-0.3887 0.2572,-0.6218 V 20.925 h -1.8358 c 0.0543,0.2835 0.0858,0.5758 0.0858,0.875 z m -5.25,3.5 c 0.4597,-10e-5 0.915,-0.0908 1.3397,-0.2668 0.4247,-0.1761 0.8105,-0.434 1.1355,-0.7592 0.325,-0.3252 0.5828,-0.7112 0.7586,-1.136 0.1759,-0.4247 0.2663,-0.88 0.2662,-1.3397 -10e-5,-0.4598 -0.0908,-0.915 -0.2668,-1.3397 -0.1761,-0.4247 -0.434,-0.8106 -0.7592,-1.1356 -0.3252,-0.325 -0.7112,-0.5828 -1.136,-0.7586 -0.4247,-0.1758 -0.88,-0.2663 -1.3398,-0.2661 -0.9284,2e-4 -1.8188,0.3692 -2.4752,1.026 -0.6564,0.6567 -1.025,1.5472 -1.0248,2.4757 3e-4,0.9285 0.3693,1.8189 1.026,2.4752 0.6568,0.6564 1.5473,1.025 2.4758,1.0248 z m 4.2,-7.175 h 2.0982 c 0.1394,0 0.2732,-0.0553 0.3719,-0.1537 0.0987,-0.0984 0.1544,-0.2319 0.1549,-0.3713 v -2.0982 c 0,-0.1398 -0.0555,-0.2737 -0.1543,-0.3725 -0.0988,-0.0988 -0.2327,-0.1543 -0.3725,-0.1543 h -2.0982 c -0.1397,0 -0.2737,0.0555 -0.3725,0.1543 -0.0988,0.0988 -0.1543,0.2327 -0.1543,0.3725 V 17.6 c 0.0018,0.2888 0.238,0.525 0.5268,0.525 z M 35.0002,5 C 30.5446,5 26.2714,6.76999 23.1208,9.92061 19.9702,13.0712 18.2002,17.3444 18.2002,21.8 c 0,4.4556 1.77,8.7288 4.9206,11.8794 3.1506,3.1506 7.4238,4.9206 11.8794,4.9206 2.2062,0 4.3908,-0.4345 6.4291,-1.2788 2.0383,-0.8443 3.8903,-2.0818 5.4503,-3.6418 1.56,-1.56 2.7975,-3.412 3.6418,-5.4503 0.8443,-2.0383 1.2788,-4.2229 1.2788,-6.4291 0,-2.2062 -0.4345,-4.3908 -1.2788,-6.4291 C 49.6771,13.3326 48.4396,11.4806 46.8796,9.92061 45.3196,8.36058 43.4676,7.1231 41.4293,6.27882 39.391,5.43454 37.2064,5 35.0002,5 Z m 8.75,23.6058 c 0,1.0692 -0.875,1.9442 -1.9443,1.9442 H 28.1944 c -1.0692,0 -1.9442,-0.875 -1.9442,-1.9442 V 14.9943 c 0,-1.0693 0.875,-1.9443 1.9442,-1.9443 h 13.6115 c 1.0693,0 1.9443,0.875 1.9443,1.9443 z"
       fill="#ffffff"
       id="path6" />
  </g>
</svg>
