<?xml version="1.0" encoding="UTF-8" standalone="no"?>
<svg
   width="34"
   height="34"
   viewBox="0 0 34 34"
   fill="none"
   version="1.1"
   id="svg25"
   sodipodi:docname="Twitter.svg"
   inkscape:version="1.2.1 (9c6d41e410, 2022-07-14)"
   xmlns:inkscape="http://www.inkscape.org/namespaces/inkscape"
   xmlns:sodipodi="http://sodipodi.sourceforge.net/DTD/sodipodi-0.dtd"
   xmlns="http://www.w3.org/2000/svg"
   xmlns:svg="http://www.w3.org/2000/svg">
  <sodipodi:namedview
     id="namedview27"
     pagecolor="#ffffff"
     bordercolor="#000000"
     borderopacity="0.25"
     inkscape:showpageshadow="2"
     inkscape:pageopacity="0.0"
     inkscape:pagecheckerboard="0"
     inkscape:deskcolor="#d1d1d1"
     showgrid="false"
     inkscape:zoom="9.53584"
     inkscape:cx="9.9099817"
     inkscape:cy="22.127049"
     inkscape:window-width="1280"
     inkscape:window-height="961"
     inkscape:window-x="1912"
     inkscape:window-y="-8"
     inkscape:window-maximized="1"
     inkscape:current-layer="svg25" />
  <g
     filter="url(#filter0_d_1_309)"
     id="g4" />
  <defs
     id="defs23">
    <filter
       id="filter0_d_1_309"
       x="0.60022002"
       y="0"
       width="69.599899"
       height="69.599899"
       filterUnits="userSpaceOnUse"
       color-interpolation-filters="sRGB">
      <feFlood
         flood-opacity="0"
         result="BackgroundImageFix"
         id="feFlood8" />
      <feColorMatrix
         in="SourceAlpha"
         type="matrix"
         values="0 0 0 0 0 0 0 0 0 0 0 0 0 0 0 0 0 0 127 0"
         result="hardAlpha"
         id="feColorMatrix10" />
      <feOffset
         dy="13"
         id="feOffset12" />
      <feGaussianBlur
         stdDeviation="9"
         id="feGaussianBlur14" />
      <feColorMatrix
         type="matrix"
         values="0 0 0 0 0.0658854 0 0 0 0 0.0730469 0 0 0 0 0.1375 0 0 0 0.08 0"
         id="feColorMatrix16" />
      <feBlend
         mode="normal"
         in2="BackgroundImageFix"
         result="effect1_dropShadow_1_309"
         id="feBlend18" />
      <feBlend
         mode="normal"
         in="SourceGraphic"
         in2="effect1_dropShadow_1_309"
         result="shape"
         id="feBlend20" />
    </filter>
  </defs>
  <g
     id="g1748"
     transform="translate(-18.388452,-4.7883528)">
    <circle
       cx="35.4002"
       cy="21.7999"
       r="16.7999"
       fill="#1a202c"
       id="circle2" />
    <path
       d="m 35.4001,5 c -9.2785,0 -16.8,7.5215 -16.8,16.8 0,9.2785 7.5215,16.8 16.8,16.8 9.2785,0 16.8,-7.5215 16.8,-16.8 0,-9.2785 -7.5215,-16.8 -16.8,-16.8 z m 6.8338,13.762 c 0.007,0.1435 0.0087,0.287 0.0087,0.427 0,4.375 -3.3267,9.4168 -9.4132,9.4168 -1.7985,0.0029 -3.5596,-0.5136 -5.0716,-1.4875 0.2573,0.0315 0.5215,0.0437 0.7893,0.0437 1.5505,0 2.9768,-0.5267 4.109,-1.4157 -0.69,-0.0136 -1.3586,-0.2421 -1.9126,-0.6536 -0.5539,-0.4116 -0.9657,-0.9857 -1.1779,-1.6424 0.4955,0.0942 1.006,0.0744 1.4927,-0.0578 -0.7489,-0.1514 -1.4224,-0.5572 -1.9062,-1.1486 -0.4839,-0.5913 -0.7483,-1.3318 -0.7485,-2.0959 v -0.0402 c 0.4462,0.2467 0.9572,0.3972 1.4997,0.4147 -0.7021,-0.4674 -1.1991,-1.1853 -1.3894,-2.007 -0.1903,-0.8217 -0.0595,-1.6851 0.3657,-2.4135 0.8312,1.022 1.8677,1.8581 3.0425,2.454 1.1748,0.596 2.4616,0.9387 3.7773,1.0058 -0.1673,-0.71 -0.0953,-1.4553 0.2047,-2.1202 0.3001,-0.6648 0.8113,-1.2119 1.4544,-1.5561 0.643,-0.3443 1.3818,-0.4665 2.1014,-0.3476 0.7197,0.1189 1.3798,0.4723 1.878,1.0051 0.7405,-0.1465 1.4507,-0.4182 2.1,-0.8032 -0.2469,0.7667 -0.7636,1.4178 -1.4543,1.8322 0.656,-0.079 1.2965,-0.2554 1.9005,-0.5232 -0.4436,0.6648 -1.0025,1.245 -1.6502,1.7132 z"
       fill="#ffffff"
       id="path6" />
  </g>
</svg>
