<svg width="20" height="26" viewBox="0 0 20 26" fill="none" xmlns="http://www.w3.org/2000/svg">
<path d="M9.72603 25.0594C11.4359 23.6009 13.0209 22.0019 14.4643 20.2792C16.6303 17.6921 19.2025 13.8392 19.2025 10.1678C19.2035 8.29272 18.6481 6.45954 17.6068 4.90022C16.5655 3.34091 15.085 2.12555 13.3527 1.40797C11.6204 0.690377 9.71418 0.502815 7.87525 0.869016C6.03631 1.23522 4.34734 2.13872 3.02209 3.46518C2.13975 4.34359 1.4404 5.38828 0.964487 6.53877C0.488581 7.68927 0.245575 8.92273 0.249538 10.1678C0.249538 13.8392 2.82173 17.6921 4.98778 20.2792C6.43118 22.0019 8.01612 23.6009 9.72603 25.0594ZM9.72603 6.10641C10.8032 6.10641 11.8362 6.5343 12.5978 7.29595C13.3595 8.0576 13.7874 9.09062 13.7874 10.1678C13.7874 11.2449 13.3595 12.2779 12.5978 13.0396C11.8362 13.8012 10.8032 14.2291 9.72603 14.2291C8.64889 14.2291 7.61587 13.8012 6.85422 13.0396C6.09256 12.2779 5.66467 11.2449 5.66467 10.1678C5.66467 9.09062 6.09256 8.0576 6.85422 7.29595C7.61587 6.5343 8.64889 6.10641 9.72603 6.10641Z" fill="white"/>
</svg>
