<svg width="28" height="28" viewBox="0 0 28 28" fill="none" xmlns="http://www.w3.org/2000/svg">
<path d="M9.06736 2.84544L10.3227 2.44411C11.4999 2.06844 12.7575 2.67627 13.2615 3.86394L14.2649 6.22994C14.7012 7.26011 14.4585 8.47227 13.6652 9.22594L11.4544 11.3236C11.5909 12.5789 12.0132 13.8144 12.7202 15.0301C13.3916 16.2063 14.2921 17.2357 15.3685 18.0576L18.0239 17.1709C19.0295 16.8361 20.1262 17.2223 20.7422 18.1288L22.1807 20.2404C22.8982 21.2951 22.7687 22.7488 21.8785 23.6424L20.9254 24.6003C19.9757 25.5534 18.6189 25.8999 17.3647 25.5079C14.4014 24.5839 11.6795 21.8411 9.19453 17.2794C6.70603 12.7108 5.82753 8.83277 6.5602 5.65011C6.8682 4.31077 7.82136 3.24327 9.06736 2.84544Z" fill="white"/>
</svg>
