<svg width="21" height="17" viewBox="0 0 21 17" fill="none" xmlns="http://www.w3.org/2000/svg">
<g clip-path="url(#clip0_1_260)">
<path d="M19.9761 0.956055H13.9761C13.5641 0.956055 12.9871 1.19505 12.6961 1.48605L5.2571 8.92505C5.11683 9.06598 5.03809 9.25672 5.03809 9.45555C5.03809 9.65439 5.11683 9.84513 5.2571 9.98605L11.6961 16.4251C11.837 16.5653 12.0278 16.6441 12.2266 16.6441C12.4254 16.6441 12.6162 16.5653 12.7571 16.4251L20.1961 8.98605C20.4881 8.69405 20.7261 8.11805 20.7261 7.70605V1.70605C20.7256 1.5073 20.6464 1.31685 20.5058 1.17631C20.3653 1.03577 20.1749 0.956583 19.9761 0.956055V0.956055ZM16.2261 6.95605C16.0291 6.95599 15.8339 6.91711 15.6519 6.84164C15.4699 6.76618 15.3045 6.6556 15.1652 6.51621C15.0259 6.37683 14.9155 6.21138 14.8401 6.02931C14.7648 5.84724 14.726 5.6521 14.7261 5.45505C14.7262 5.25801 14.765 5.0629 14.8405 4.88088C14.916 4.69885 15.0266 4.53348 15.1659 4.39419C15.3053 4.2549 15.4708 4.14443 15.6528 4.06908C15.8349 3.99374 16.0301 3.95499 16.2271 3.95505C16.6251 3.95519 17.0067 4.1134 17.288 4.39489C17.5693 4.67639 17.7272 5.0581 17.7271 5.45605C17.727 5.85401 17.5688 6.23562 17.2873 6.51692C17.0058 6.79823 16.6241 6.95619 16.2261 6.95605Z" fill="white"/>
<path d="M2.7261 9.45605L11.2261 0.956055H9.9761C9.5641 0.956055 8.9871 1.19505 8.6961 1.48605L1.2571 8.92505C1.11683 9.06598 1.03809 9.25672 1.03809 9.45555C1.03809 9.65439 1.11683 9.84513 1.2571 9.98605L7.6961 16.4251C7.83703 16.5653 8.02777 16.6441 8.2266 16.6441C8.42543 16.6441 8.61618 16.5653 8.7571 16.4251L9.2271 15.9551L2.7271 9.45505L2.7261 9.45605Z" fill="white"/>
</g>
<defs>
<clipPath id="clip0_1_260">
<rect width="20" height="16" fill="white" transform="translate(0.726074 0.956055)"/>
</clipPath>
</defs>
</svg>
